<svg width="46" height="46" viewBox="0 0 46 46" fill="none" xmlns="http://www.w3.org/2000/svg">
<path d="M4.6 10.7333C4.39682 10.7305 4.19509 10.768 4.00654 10.8438C3.81798 10.9195 3.64637 11.032 3.50167 11.1747C3.35697 11.3174 3.24207 11.4874 3.16364 11.6748C3.08522 11.8623 3.04483 12.0635 3.04483 12.2667C3.04483 12.4699 3.08522 12.6711 3.16364 12.8585C3.24207 13.046 3.35697 13.216 3.50167 13.3586C3.64637 13.5013 3.81798 13.6138 4.00654 13.6896C4.19509 13.7653 4.39682 13.8029 4.6 13.8H41.4C41.6032 13.8029 41.8049 13.7653 41.9935 13.6896C42.182 13.6138 42.3536 13.5013 42.4983 13.3586C42.643 13.216 42.7579 13.046 42.8364 12.8585C42.9148 12.6711 42.9552 12.4699 42.9552 12.2667C42.9552 12.0635 42.9148 11.8623 42.8364 11.6748C42.7579 11.4874 42.643 11.3174 42.4983 11.1747C42.3536 11.032 42.182 10.9195 41.9935 10.8438C41.8049 10.768 41.6032 10.7305 41.4 10.7333H4.6ZM4.6 21.4667C4.39682 21.4638 4.19509 21.5013 4.00654 21.5771C3.81798 21.6529 3.64637 21.7654 3.50167 21.908C3.35697 22.0507 3.24207 22.2207 3.16364 22.4082C3.08522 22.5956 3.04483 22.7968 3.04483 23C3.04483 23.2032 3.08522 23.4044 3.16364 23.5918C3.24207 23.7793 3.35697 23.9493 3.50167 24.092C3.64637 24.2346 3.81798 24.3471 4.00654 24.4229C4.19509 24.4987 4.39682 24.5362 4.6 24.5333H41.4C41.6032 24.5362 41.8049 24.4987 41.9935 24.4229C42.182 24.3471 42.3536 24.2346 42.4983 24.092C42.643 23.9493 42.7579 23.7793 42.8364 23.5918C42.9148 23.4044 42.9552 23.2032 42.9552 23C42.9552 22.7968 42.9148 22.5956 42.8364 22.4082C42.7579 22.2207 42.643 22.0507 42.4983 21.908C42.3536 21.7654 42.182 21.6529 41.9935 21.5771C41.8049 21.5013 41.6032 21.4638 41.4 21.4667H4.6ZM4.6 32.2C4.39682 32.1971 4.19509 32.2347 4.00654 32.3104C3.81798 32.3862 3.64637 32.4987 3.50167 32.6414C3.35697 32.784 3.24207 32.954 3.16364 33.1415C3.08522 33.3289 3.04483 33.5301 3.04483 33.7333C3.04483 33.9365 3.08522 34.1377 3.16364 34.3252C3.24207 34.5126 3.35697 34.6826 3.50167 34.8253C3.64637 34.968 3.81798 35.0805 4.00654 35.1562C4.19509 35.232 4.39682 35.2695 4.6 35.2667H41.4C41.6032 35.2695 41.8049 35.232 41.9935 35.1562C42.182 35.0805 42.3536 34.968 42.4983 34.8253C42.643 34.6826 42.7579 34.5126 42.8364 34.3252C42.9148 34.1377 42.9552 33.9365 42.9552 33.7333C42.9552 33.5301 42.9148 33.3289 42.8364 33.1415C42.7579 32.954 42.643 32.784 42.4983 32.6414C42.3536 32.4987 42.182 32.3862 41.9935 32.3104C41.8049 32.2347 41.6032 32.1971 41.4 32.2H4.6Z" fill="#4338DE"/>
</svg>
