<svg width="202" height="335" viewBox="0 0 202 335" fill="none" xmlns="http://www.w3.org/2000/svg">
<path d="M101.629 18.425H103.724L105.82 18.8438L107.915 20.1L108.963 21.1469L110.01 22.4031L111.687 25.7531L113.154 29.5219L113.363 30.3594L114.201 30.15L119.23 28.0563L122.373 27.2188H125.726L127.822 28.0563L129.707 29.3125L131.593 31.1969L133.27 33.9188L134.108 36.2219L134.527 38.525V44.1781L137.041 43.55L139.975 43.3406L142.909 43.9688L144.795 45.225L146.471 47.1094L147.519 49.6219L147.938 51.7156V54.4375L147.1 57.7875L145.423 61.5563L148.147 63.2313L149.195 64.9062L150.033 67.8375L150.243 69.3031V71.8156L149.614 74.9563L148.566 77.8875L146.68 81.2375L145.004 83.3313L143.956 84.5875L141.651 86.2625L139.137 87.3094L141.442 89.4031L142.28 91.2875V94.0094L141.023 96.5219L139.137 98.1969L136.832 99.6625L135.994 100.709L135.156 102.594L133.06 110.969L130.546 118.506L128.45 123.322L126.355 127.719L124.259 130.859L121.954 133.372L118.392 136.931L117.554 138.606L117.344 139.444L117.135 145.516V149.075H119.021L125.307 152.006L135.784 157.031L141.232 159.753L145.842 162.266L152.757 165.825L157.577 168.547L160.929 170.85L163.234 172.734L165.959 175.247L167.635 176.922L169.521 179.225L171.826 182.366L174.34 186.553L176.855 191.787L178.741 196.812L180.207 201.837L181.255 206.653L182.093 212.516L182.512 217.541V226.125L182.093 232.616L181.255 240.153L179.998 247.691L178.741 253.134L177.274 257.531L174.759 262.975L171.826 268.209L169.94 270.512L167.635 272.188L164.492 273.653L159.672 275.119L158.415 275.537L157.996 276.794L157.367 282.656L154.853 299.825L153.386 310.084L152.757 311.131L151.919 311.55L148.985 311.759L148.776 312.597L146.68 313.016L136.413 313.434L127.402 313.644L97.8568 314.062L76.9025 314.9L58.6722 315.319L53.6432 315.528H49.2427L48.195 314.9L46.0996 314.272L45.2614 313.225L44.4232 310.713L43.5851 305.687L42.7469 298.359L42.1183 289.147L41.9087 283.284V270.512L42.1183 265.488L37.5083 265.697H33.9461L28.917 265.278L25.5643 264.441L23.0498 263.394L20.7448 261.719L19.0685 259.834L17.3921 256.484L16.3444 253.134L15.7158 249.366L15.5062 246.644V243.712L15.9253 236.175L16.973 226.753L18.4398 217.331L20.9544 204.769L23.6784 192.834L25.1452 187.809L26.4025 184.669L28.0788 181.109L30.5934 176.922L32.4793 174.409L34.3651 172.106L37.2988 168.966L39.6037 167.081L42.3278 164.988L47.3568 162.056L50.9191 160.381L55.9481 158.497L67.473 154.728L82.5602 150.122L84.8652 149.494L86.5415 149.703L87.3797 149.913L88.2178 145.725L88.6369 141.956L88.8465 137.978L88.2178 135.047L86.9606 132.953L84.8652 131.278L82.1411 129.394L78.9979 126.253L77.112 123.531L75.2261 120.181L72.7116 115.156L70.4066 109.503L68.9398 104.688L67.8921 99.6625L67.2635 94.2188L67.0539 91.2875L66.8444 90.2406L65.1681 89.8219V89.1937L66.2158 88.5656H66.6349V84.1688L63.2822 83.9594L60.5581 82.9125L58.2531 81.4469L56.3672 79.5625L55.11 77.4688L54.4813 75.7938L54.2718 73.9094L54.9004 71.3969L56.1577 69.0938L56.9959 67.8375L56.7863 66.7906L55.9481 64.4875L55.529 62.1844V59.0438L56.3672 55.6938L58.0436 52.1344L59.9295 49.6219L61.8154 47.7375L64.749 46.2719L66.0062 45.8531L68.3112 45.6438L68.7303 42.2938L69.5685 38.7344L70.6162 36.2219L71.8734 34.1281L74.1784 31.4063L76.9025 29.5219L78.9979 28.8938H82.7697L85.4938 29.7313L87.7988 30.9875L88.2178 31.1969L89.4751 27.8469L91.361 24.7063L93.2469 22.6125L95.1328 20.9375L98.2759 19.2625L101.629 18.425Z" fill="#A49846"/>
<path d="M101.629 18.425H103.724L105.82 18.8438L107.915 20.1L108.963 21.1469L110.01 22.4031L111.687 25.7531L113.154 29.5219L113.363 30.3594L114.201 30.15L119.23 28.0563L122.373 27.2188H125.726L127.822 28.0563L129.707 29.3125L131.593 31.1969L133.27 33.9188L134.108 36.2219L134.527 38.525V44.1781L137.041 43.55L139.975 43.3406L142.909 43.9688L144.795 45.225L146.471 47.1094L147.519 49.6219L147.938 51.7156V54.4375L147.1 57.7875L145.423 61.5563L148.147 63.2313L149.195 64.9062L150.033 67.8375L150.243 69.3031V71.8156L149.614 74.9563L148.566 77.8875L146.681 81.2375L145.004 83.3313L143.956 84.5875L141.651 86.2625L139.137 87.3094L141.442 89.4031L142.28 91.2875V94.0094L141.023 96.5219L139.137 98.1969L136.832 99.6625L135.994 100.709L135.156 102.594L133.06 110.969L130.546 118.506L128.45 123.322L126.355 127.719L124.259 130.859L121.954 133.372L118.392 136.931L117.554 138.606L117.344 139.444L117.135 145.516V149.494L116.297 149.913L114.201 151.378L110.849 152.844L107.286 153.891L103.515 154.519H98.9046L95.7614 153.891L92.6183 152.844L88.8465 151.169L88.0083 150.541L87.1701 150.122L87.7988 148.238L88.4274 143.841L88.8465 137.978L88.2178 135.047L86.9606 132.953L84.8652 131.278L82.1411 129.394L78.9979 126.253L77.112 123.531L75.2261 120.181L72.7116 115.156L70.4066 109.503L68.9398 104.688L67.8921 99.6625L67.2635 94.2188L67.0539 91.2875L66.8444 90.2406L65.1681 89.8219V89.1937L66.2158 88.5656H66.6349V84.1688L63.2822 83.9594L60.5581 82.9125L58.2531 81.4469L56.3672 79.5625L55.11 77.4688L54.4813 75.7938L54.2718 73.9094L54.9004 71.3969L56.1577 69.0938L56.9959 67.8375L56.7863 66.7906L55.9481 64.4875L55.5291 62.1844V59.0438L56.3672 55.6938L58.0436 52.1344L59.9295 49.6219L61.8154 47.7375L64.749 46.2719L66.0062 45.8531L68.3112 45.6438L68.7303 42.2938L69.5685 38.7344L70.6162 36.2219L71.8734 34.1281L74.1784 31.4063L76.9025 29.5219L78.9979 28.8938H82.7697L85.4938 29.7313L87.7988 30.9875L88.2178 31.1969L89.4751 27.8469L91.361 24.7063L93.2469 22.6125L95.1328 20.9375L98.2759 19.2625L101.629 18.425Z" fill="#CBAE83"/>
<path d="M101.629 18.425H103.724L105.82 18.8438L107.915 20.1L108.963 21.1469L110.01 22.4031L111.687 25.7531L113.154 29.5219L113.363 30.3594L114.201 30.15L119.23 28.0563L122.373 27.2188H125.726L127.822 28.0563L129.707 29.3125L131.593 31.1969L133.27 33.9188L134.108 36.2219L134.527 38.525V44.1781L137.041 43.55L139.975 43.3406L142.909 43.9688L144.795 45.225L146.471 47.1094L147.519 49.6219L147.938 51.7156V54.4375L147.1 57.7875L145.423 61.5563L148.147 63.2313L149.195 64.9062L150.033 67.8375L150.243 69.3031V71.8156L149.614 74.9563L148.566 77.8875L146.681 81.2375L145.004 83.3313L143.956 84.5875L141.651 86.2625L139.556 87.1L136.832 87.5188L134.108 87.3094L133.898 86.8906H134.527L134.737 85.8438L135.156 85.425L137.88 84.7969L138.718 83.9594L138.927 82.9125L134.317 83.1219H131.803L130.965 82.2844L130.546 81.6562L130.127 77.6781L127.402 77.4688L125.098 76.6313L122.793 74.9563L121.326 72.8625L120.488 70.5594V64.6969H117.554L115.039 64.0688L112.106 62.6031L110.01 60.5094L108.334 57.5781L107.915 56.5313L107.077 56.7406L104.353 58.4156L102.676 59.0438L101.419 59.2531H97.8569L95.3423 58.625L93.4564 57.7875H93.0373V59.4625L92.4087 62.6031L91.5705 64.2781L89.6847 65.9531L86.5415 67L82.1411 68.0469L78.9979 68.2563L79.2075 69.7219V71.6063L78.5788 74.1188L77.112 76.8406L75.0166 79.5625L73.1307 81.2375L70.1971 82.9125L66.4253 83.9594H63.2822L60.5581 82.9125L58.2531 81.4469L56.3672 79.5625L55.11 77.4688L54.4813 75.7938L54.2718 73.9094L54.9004 71.3969L56.1577 69.0938L56.9959 67.8375L56.7863 66.7906L55.9481 64.4875L55.5291 62.1844V59.0438L56.3672 55.6938L58.0436 52.1344L59.9295 49.6219L61.8154 47.7375L64.749 46.2719L66.0062 45.8531L68.3112 45.6438L68.7303 42.2938L69.5685 38.7344L70.6162 36.2219L71.8734 34.1281L74.1784 31.4063L76.9025 29.5219L78.9979 28.8938H82.7697L85.4938 29.7313L87.7988 30.9875L88.2178 31.1969L89.4751 27.8469L91.361 24.7063L93.2469 22.6125L95.1328 20.9375L98.2759 19.2625L101.629 18.425Z" fill="#030F20"/>
<path d="M107.286 56.3219L108.124 56.5312L109.801 59.8812L111.687 61.975L112.734 62.8125L115.039 63.8594L117.554 64.4875L120.488 64.6969L120.697 70.5594L121.745 73.0719L123.212 75.1656L125.517 76.6312L127.402 77.2594L130.127 77.6781L130.336 78.0969L130.755 81.6562L131.384 82.7031L131.803 82.9125H134.317L138.089 82.7031L138.927 82.9125L138.718 84.3781L137.88 85.0062L135.156 85.6344L134.527 86.8906L133.479 87.1L132.222 86.2625L132.012 86.0531L130.336 86.2625L129.498 86.4719V90.0312H129.917L129.707 90.8687L129.079 91.4969L128.869 93.3812L126.983 98.825L125.307 102.175L123.631 104.478L121.954 105.944L120.278 106.781L118.811 107.2H114.83L112.525 106.362L110.22 104.897L108.544 102.803L107.496 100.5L106.239 95.6844L104.772 89.1937L104.143 87.5187L103.724 87.3094H100.79L98.9046 87.7281L98.4855 87.9375V93.8L98.0664 97.15L97.2282 100.5H97.8568L98.2759 101.337V104.269L98.695 105.316L99.7427 105.734H101.838L105.191 105.316L106.658 104.687V105.316L105.4 106.362L104.353 107.409L102.676 108.247L99.7427 108.456L97.2282 107.409L96.39 106.362L95.9709 104.478L95.7614 103.85L94.5041 105.525L93.666 106.572L91.5705 108.247L88.8465 109.503L88.2178 109.712H84.446L81.722 108.666L79.6265 107.409L77.5311 105.525L76.0643 103.431L75.0166 101.128L74.5975 99.2437L72.083 99.8719L71.8734 99.0344L72.2925 97.9875L70.8257 97.3594L71.0353 96.7312L72.2925 96.5219L73.7593 96.9406L73.1307 93.1719L72.2925 88.9844L69.9875 89.4031L67.473 90.0312H65.5871L64.9585 89.4031L65.5871 88.775L66.6348 88.5656V84.1687L66.4253 83.75L70.1971 82.7031L72.5021 81.4469L74.5975 79.7719L76.4834 77.4687L77.7407 75.375L78.7884 72.8625L78.9979 71.6062V68.2562L82.9792 67.6281L88.0083 66.3719L89.8942 65.5344L91.5705 64.0687L92.4087 61.975L92.8278 59.0437V57.7875L93.4564 57.5781L95.9709 58.625L97.8568 59.0437H101.419L103.305 58.625L105.819 57.3687L107.286 56.3219Z" fill="#020203"/>
<path d="M107.286 56.3219L108.124 56.5312L109.801 59.8812L111.687 61.975L112.734 62.8125L115.039 63.8594L117.554 64.4875L120.488 64.6969L120.697 70.5594L121.745 73.0719L123.212 75.1656L125.517 76.6312L127.403 77.2594L130.127 77.6781L130.336 78.0969L130.546 80.4V83.5406H127.403L124.678 82.7031L122.373 82.2844H114.411L109.801 83.3312L105.82 84.7969L104.562 85.2156L98.4855 86.0531L97.4378 85.8437L96.5996 83.9594L95.7614 83.75L95.3423 85.0062L90.3133 83.5406L90.5228 82.7031L90.9419 81.4469L90.5228 80.1906L89.4751 79.1437L88.6369 78.725H83.3984L79.8361 79.7719L77.3216 81.0281L74.8071 82.9125L74.1784 83.5406L74.388 85.2156L70.4067 86.8906L67.2635 88.1469H66.8444L66.6349 84.1687L66.4253 83.75L70.1971 82.7031L72.5021 81.4469L74.5975 79.7719L76.4834 77.4687L77.7407 75.375L78.7884 72.8625L78.9979 71.6062V68.2562L82.9793 67.6281L88.0083 66.3719L89.8942 65.5344L91.5706 64.0687L92.4087 61.975L92.8278 59.0437V57.7875L93.4564 57.5781L95.971 58.625L97.8569 59.0437H101.419L103.305 58.625L105.82 57.3687L107.286 56.3219Z" fill="#CAAE81"/>
<path d="M79.8361 85.6344H84.2365L92.8278 86.6812L94.9232 87.5187L95.5519 88.5656L95.7614 92.3344L95.3423 97.15L94.0851 100.919L92.4087 104.059L90.5228 106.153L88.4274 107.2L87.3797 107.409H85.2842L83.1888 106.781L81.0934 105.525L79.6266 104.269L78.1597 101.966L76.9025 99.0344L75.8548 95.0562L75.6452 93.8L74.8071 89.8219V88.1469L76.6929 86.8906L78.9979 85.8437L79.8361 85.6344Z" fill="#C9AD80"/>
<path d="M128.66 239.944L130.336 240.153L130.127 240.991L120.907 243.503L114.62 245.178L105.4 247.9L95.3423 251.041L85.4938 254.391H84.6556L85.2842 255.019L91.1515 257.741L99.1141 260.881L106.658 263.394L114.411 265.697L124.469 268.209L133.06 269.884L142.071 271.35L153.805 272.816L157.786 273.234L157.577 273.863L154.853 274.491H150.452L143.747 273.863L137.67 273.025L128.869 271.559L121.116 270.094L114.83 268.419L103.934 265.488L97.0187 263.184L90.5228 260.463L87.3797 258.997L81.0934 255.856H79.6266L69.778 258.788L61.8154 261.091L53.0145 263.813L49.0332 265.069L43.7946 266.325H43.166L42.9564 265.488L44.0042 264.859L46.5187 263.813L53.6432 261.509L63.9108 258.578L75.0166 255.228L106.239 245.178L115.039 242.666L122.164 240.991L126.983 240.153L128.66 239.944Z" fill="#020203"/>
<path d="M115.878 84.5875H120.068L123.212 84.7969L125.307 85.425L126.355 86.2625V91.9156L125.307 96.1031L124.05 99.2437L122.583 101.966L121.116 103.641L119.021 104.687L117.554 105.106H115.878L113.782 104.478L112.106 103.431L110.639 101.756L109.382 99.0344L108.124 94.8469L107.077 88.9844L106.867 88.3562V86.6812L110.01 85.6344L113.154 84.7969L115.878 84.5875Z" fill="#CAAE82"/>
<path d="M132.641 226.963H134.946L138.299 227.381L142.699 228.009L143.956 228.638L150.662 232.825L153.386 234.919L155.062 236.594L156.529 238.688L156.948 239.734V240.991L154.224 241.2H149.614L141.232 240.991L134.317 240.572L132.641 240.363L131.593 238.688L130.546 235.338L129.707 231.359V228.847L130.336 227.8L131.384 227.172L132.641 226.963Z" fill="#CCAF84"/>
<path d="M95.3423 311.131H113.782L146.471 311.341L148.776 311.759V312.597L146.68 313.016L136.413 313.434L127.402 313.644L97.8568 314.062L76.9025 314.9L58.6722 315.319L53.6432 315.528H49.2427L47.5664 314.691L48.195 314.272L50.7095 313.644L59.9295 312.806L73.1307 311.969L90.5228 311.341L95.3423 311.131Z" fill="#060604"/>
<path d="M64.5394 215.447L67.8921 215.656L72.2925 217.122L74.807 218.378L75.0166 219.006L73.5498 220.681L71.4544 223.822L70.8257 225.078L70.1971 225.287V226.125L69.5685 226.334L49.2427 226.962H47.5664L47.1473 226.544V225.916L46.0996 225.706L46.3091 224.45L55.7386 218.169H56.3672V217.75L60.139 216.284L62.444 215.656L64.5394 215.447Z" fill="#CBAE83"/>
<path d="M103.724 109.294H107.496L109.801 110.131L112.525 111.388L114.411 111.597L117.344 110.759L118.602 110.55L118.183 111.597L116.297 113.481L113.782 114.947V116.203L112.944 117.25L105.191 119.972L101.629 120.809H95.7614L93.666 120.181L93.0373 119.553L93.2469 118.716H94.7137L97.2282 119.134H100.162L104.143 118.506L109.172 116.831L110.639 115.994L106.448 115.784L102.257 114.319H98.2759L93.8755 116.203L89.8942 117.25L89.056 117.459H86.9606L85.2842 117.041L82.7697 115.994L81.0934 114.528V113.9L82.1411 114.109L82.7697 114.319H85.0747L88.4274 112.644L90.3133 111.388L91.9896 110.55L93.4564 110.131H95.1328L97.0187 110.55L98.0664 110.969H99.5332L102.048 109.713L103.724 109.294Z" fill="#020E1E"/>
<path d="M115.878 84.5875H120.068L123.212 84.7969L125.307 85.425L126.355 86.2625V91.9156L125.307 96.1031L124.888 96.5219L125.098 94.6375L125.517 92.5437V91.2875L124.469 91.0781L120.278 90.45H116.297L112.944 91.4969L110.429 92.5437L108.334 92.9625L109.591 98.1969L110.22 99.8719L110.01 100.5L108.753 97.15L107.705 92.7531L106.867 88.3562V86.6812L110.01 85.6344L113.154 84.7969L115.878 84.5875Z" fill="#C7AC7D"/>
<path d="M69.778 159.753L70.6162 160.172L72.2925 161.847L73.3403 163.103L75.6452 164.987L77.7407 166.453L81.0934 168.337L85.4938 170.222L90.1037 171.687L95.3423 172.734L97.6473 172.944H105.191L110.22 172.316L115.668 171.059L119.649 169.594L124.05 167.291L126.774 165.616L130.546 163.522L131.593 163.312L131.384 164.15L130.336 165.406L126.774 167.919L123.631 169.803L119.23 171.897L114.62 173.572L109.801 174.619L106.658 175.037L103.305 175.247H101L97.0187 175.037L91.5705 174.2L87.7988 173.153L85.2842 172.316L80.4647 170.222L78.1598 168.966L75.8548 167.291L72.7116 164.359L71.6639 163.103L70.6162 162.056L69.5685 160.381L69.778 159.753Z" fill="#020203"/>
<path d="M83.1888 224.031H102.886L109.801 224.45L118.602 225.497L124.259 226.544L125.936 227.172L125.726 227.8L124.259 228.009L110.01 226.753L102.886 226.334L94.9232 226.125H80.6743L71.6639 226.334L70.4066 226.125L70.6162 225.078L75.8548 224.45L83.1888 224.031Z" fill="#020203"/>
<path d="M113.992 75.375H117.554L120.068 76.0031L123.421 77.6781L124.888 78.725V79.1438L118.183 79.3531L114.411 80.1906L108.963 82.075H107.077L105.191 80.8188L104.562 79.7719L104.772 78.725L108.124 77.05L111.058 76.0031L113.992 75.375Z" fill="#020203"/>
<path d="M98.0664 88.3563L98.4855 88.775V93.8L98.0664 97.15L97.2282 100.5H97.8568L98.2759 101.338V104.269L98.695 105.316L99.7427 105.734H101.838L105.191 105.316L106.658 104.688V105.316L105.4 106.363L104.353 107.409L102.676 108.247L99.7427 108.456L97.2282 107.409L96.39 106.363L95.9709 104.478L95.7614 103.85L94.5041 105.525L93.4564 106.572L93.8755 105.525L95.1328 103.431L96.8091 99.8719L97.8568 95.2656L98.0664 88.3563Z" fill="#A49847"/>
<path d="M109.801 115.575H113.782L113.573 116.622L112.944 117.25L105.191 119.972L101.629 120.809H95.7614L93.666 120.181L93.0374 119.553L93.2469 118.716H94.7137L97.2282 119.134H100.162L104.143 118.506L109.172 116.831L110.639 115.994L109.801 115.575Z" fill="#020204"/>
<path d="M88.6369 135.466H90.1037L98.0664 137.978L100.371 138.397H105.191L109.172 137.978L110.639 137.559H111.687L111.268 138.397L109.801 139.234L107.286 139.863L104.981 140.072H100.79L97.8568 139.653L94.5042 138.606L92.6183 137.769L89.2656 136.094L88.6369 135.466Z" fill="#020306"/>
<path d="M117.973 87.7281H120.068L122.164 88.3562L124.259 89.8219L124.469 90.45L124.259 90.6594L122.373 90.45L119.859 90.0312H116.716L113.363 91.0781L110.01 92.3344L108.753 92.5437L109.172 91.7062L111.477 90.0312L114.62 88.5656L116.506 87.9375L117.973 87.7281Z" fill="#020203"/>
<path d="M98.2759 114.109H102.257L106.448 115.575L110.639 115.784L110.849 116.203L108.124 117.459L103.305 118.925L100.162 119.344H97.2282L94.7137 118.925H93.2469L93.4564 119.763L94.9232 120.391L95.7614 120.6H101.629L105.191 119.763L110.639 117.878L111.687 117.669L110.849 118.297L108.334 119.344L104.981 120.391L102.048 121.228L99.9523 121.438H98.0664L94.0851 120.809L93.0373 120.181L92.8278 118.716L93.2469 118.297H95.1328L95.7614 118.506H101.838L105.61 117.669L107.705 116.831H108.334V116.203L106.029 115.994L102.676 114.738L101.21 114.528H98.4855L97.6473 114.947L96.8091 114.738L98.2759 114.109Z" fill="#A49846"/>
<path d="M82.5602 90.6594H85.2842L88.0083 91.4969L90.5228 93.1719L90.9419 93.8L90.5228 94.0094L87.7988 93.1719L85.2842 92.5437H81.722L77.112 94.2187L76.2739 94.4281L76.693 93.3812L78.7884 91.9156L81.5125 90.8687L82.5602 90.6594Z" fill="#020203"/>
<path d="M144.585 215.028L145.214 215.656L144.376 224.45L144.166 226.753L143.537 227.8L142.909 228.009L142.28 227.8V224.45L143.118 219.216L144.166 215.447L144.585 215.028Z" fill="#020203"/>
<path d="M97.2282 101.128L97.8569 101.337L98.0664 102.594V104.897L98.2759 105.944L99.1141 106.153H102.676L104.772 105.525L106.448 104.687L106.867 105.106L105.191 106.572L102.467 107.619L100.162 108.037L97.4378 107.2L96.5996 106.153L96.39 105.525V103.641L97.2282 101.128Z" fill="#020203"/>
<path d="M110.01 85.6344L110.849 85.8437L107.705 87.1H107.077L108.124 91.7062V92.125L108.963 91.4969L109.382 91.7062L108.753 92.5437L111.268 91.7062L115.039 90.2406L116.716 89.8219H119.859L123.212 90.45H124.259L124.469 89.8219L125.517 90.45L125.936 89.1937V86.0531L126.355 86.2625V91.9156L125.307 96.1031L124.888 96.5219L125.098 94.6375L125.517 92.5437V91.2875L124.469 91.0781L120.278 90.45H116.297L112.944 91.4969L110.429 92.5437L108.334 92.9625L109.591 98.1969L110.22 99.8719L110.01 100.5L108.753 97.15L107.705 92.7531L106.867 88.3562V86.6812L110.01 85.6344Z" fill="#A49846"/>
<path d="M57.4149 206.444L57.834 206.653L58.0436 207.491V212.725L57.4149 216.912L56.3672 217.959H55.7386L55.9481 215.028L56.7863 208.956L57.2054 206.653L57.4149 206.444Z" fill="#020203"/>
<path d="M157.577 240.781H159.463L162.187 241.2L165.539 242.247L167.425 243.294V243.713H165.539L161.349 242.875L158.205 241.828L157.577 241.2V240.781Z" fill="#020B19"/>
<path d="M88.4274 135.047L90.5228 135.256L97.4378 137.35L99.9523 137.769H104.772L111.896 137.141L112.106 137.769L111.058 138.816L110.639 138.606L111.687 137.559L109.172 138.188L105.191 138.606H100.371L97.4378 137.978L91.361 136.094L90.1037 135.675H88.4274V135.047Z" fill="#A49846"/>
<path d="M38.556 224.869H41.2801L45.2614 225.497L46.9378 226.125V226.963L46.3091 227.172L42.7469 226.963L39.1846 226.125L38.3465 225.706L38.556 224.869Z" fill="#020B18"/>
<path d="M130.336 80.4H130.546V83.5406H127.402L124.678 82.7031L122.373 82.2844H114.411L109.801 83.3312L106.867 84.3781L106.239 84.1687L108.334 83.3312L110.849 82.4937L115.039 81.6562L117.763 81.4469H121.326L122.583 81.8656L126.355 82.4937L128.031 82.9125H129.917L130.336 82.7031V80.4Z" fill="#A49846"/>
<path d="M88.6369 157.659L89.6846 157.869L89.4751 159.125L88.2178 161.009L87.1701 162.056L86.3319 162.684H85.4938L85.7033 161.428L86.9606 159.334L88.2178 157.869L88.6369 157.659Z" fill="#020203"/>
<path d="M117.973 156.194L119.021 156.403L120.697 158.078L121.745 159.963L121.535 161.009L120.488 160.8L118.602 159.125L117.763 157.45V156.403L117.973 156.194Z" fill="#020203"/>
<path d="M73.5498 99.2437H74.5975L75.8548 102.594L77.3216 105.106L78.9979 106.781L81.3029 108.247L83.6079 109.294L84.4461 109.503H88.2178L90.7324 108.456L91.9896 108.037L91.1515 109.084L89.2656 109.503V109.922L88.0083 110.131H84.8651L81.9315 109.294L79.8361 108.037L77.9502 106.572V106.153H77.5311L75.8548 103.85L74.5975 100.919L74.388 100.081L73.5498 99.8719H72.5021L73.3402 99.4531L73.5498 99.2437Z" fill="#A49846"/>
<path d="M104.562 88.5656L104.981 89.1937L106.658 96.7312L107.915 101.128L109.172 103.431L110.22 104.687L112.525 106.153L114.83 106.991H118.811L120.907 106.572L120.488 106.991L119.23 107.409L117.554 107.619H115.249L112.106 106.781L109.382 104.478L107.705 101.966L106.867 99.6625L106.029 96.1031L105.4 93.8L104.772 90.0312L104.562 88.5656Z" fill="#A49846"/>
<path d="M110.429 159.334L111.268 159.544L112.525 161.637L113.573 164.15V164.987L112.734 164.778L111.268 163.312L110.429 162.056L110.22 161.219V159.544L110.429 159.334Z" fill="#020203"/>
<path d="M83.1888 153.891H84.6556V154.938L82.9793 156.194L80.0456 157.241L78.9979 157.45L79.2075 156.613L80.8838 155.147L83.1888 153.891Z" fill="#020203"/>
<path d="M94.9232 160.381L95.7614 160.591L95.971 161.009V162.894L95.3423 165.197L94.9232 165.616H94.2946L93.8755 164.359V162.266L94.7137 160.591L94.9232 160.381Z" fill="#020203"/>
<path d="M89.4751 136.303L90.5228 136.513L93.8755 138.188L96.1805 139.025L98.9046 139.653L100.79 139.863H104.981L108.124 139.444L110.429 139.025L110.01 139.444L108.124 140.072L104.981 140.491H102.467L99.1141 140.281L94.9232 139.234L91.7801 137.978L89.4751 136.513V136.303Z" fill="#A49846"/>
<path d="M102.886 161.009L103.724 161.219L104.143 163.103V166.663L103.305 166.453L102.676 164.778V161.428L102.886 161.009Z" fill="#020203"/>
<path d="M103.724 108.875H106.867L109.591 109.713L111.896 110.759L112.944 111.178H115.039L118.392 110.131L119.021 110.341L118.602 110.969V110.55L115.459 111.597L113.363 111.806L110.639 110.759L108.334 109.713L107.496 109.503H103.724L101.629 110.131L99.9523 110.969L99.5332 110.759L102.886 109.084L103.724 108.875Z" fill="#A49846"/>
<path d="M79.8361 85.6344H84.2365L92.8278 86.6812L94.0851 87.1V87.3094L87.5892 86.6812L84.4461 86.2625H79.8361L78.1598 86.4719L78.9979 85.8437L79.8361 85.6344Z" fill="#A49846"/>
<path d="M80.8838 114.319L82.3506 115.575L84.6556 116.622L85.7033 117.041L86.9606 117.25H89.056L93.2469 116.203L93.8755 116.413L91.1515 117.25L89.2656 117.669H86.1224L82.7697 116.413L81.5125 115.575L80.8838 114.738V114.319Z" fill="#A49846"/>
<path d="M71.6639 88.775L72.5021 88.9844L73.7593 95.2656V96.9406L72.2925 96.7312L71.4543 96.3125L72.7116 96.1031L72.9212 95.6844V94.0094L72.083 89.6125L71.6639 88.775Z" fill="#A49846"/>
<path d="M98.0664 102.594L98.2759 103.013L98.4855 105.106L98.9046 105.525L99.7427 105.734H101.838L104.772 105.525L104.353 105.944L102.676 106.363H99.1141L98.2759 105.944L97.8568 104.897V102.803L98.0664 102.594Z" fill="#A49846"/>
<path d="M97.0187 84.1688L97.4378 84.7969V85.2156H100.162L101.21 85.0063L104.143 84.7969L106.239 84.3781L105.4 85.0063L99.9523 85.8438L97.8569 86.0531L97.2282 85.6344L97.0187 84.1688Z" fill="#A49846"/>
<path d="M45.2614 225.706L46.3091 225.916L46.9378 226.125V226.962L46.3091 227.172L42.7469 226.962V226.753L44.4232 226.544V225.916L45.2614 225.706Z" fill="#020203"/>
<path d="M164.701 242.038L165.958 242.456L167.425 243.294V243.713H165.539L163.444 243.294V243.084H164.492L164.701 242.038Z" fill="#020204"/>
<path d="M130.965 85.8438H132.012L132.641 86.6813H130.127V87.1H129.498V89.6125L130.336 90.0312L130.127 90.8688L129.707 90.6594L129.498 90.2406L129.288 90.0312V86.4719L130.965 85.8438Z" fill="#A49846"/>
<path d="M75.4357 91.9156L75.8548 92.7531V93.5906H76.4834L76.2739 94.4281L76.6929 94.6375H76.2739L77.112 98.1969L77.9502 100.5L77.7407 101.128L76.6929 98.4062L75.8548 94.8469L75.4357 92.9625V91.9156Z" fill="#A49846"/>
<path d="M153.805 273.234H155.9L156.529 273.444V273.862L154.224 274.281H152.757L153.595 273.862L153.805 273.234Z" fill="#020E20"/>
<path d="M121.535 76.6313H123.421L123.84 76.8406L124.678 78.5156L123.631 78.0969L121.535 76.8406V76.6313Z" fill="#A49846"/>
<path d="M95.3423 103.431L95.7614 104.059L94.7137 105.106L93.8755 106.362L93.4564 106.572L93.8755 105.525L95.3423 103.431Z" fill="#A49846"/>
</svg>
